# xmcd CD database file
#
# Track frame offsets:
#	200
#	31475
#	46775
#	69050
#	99275
#	123875
#	148100
#	170825
#	205400
#	227375
#	239450
#
# Disc length: 3376 seconds
#
# Revision: 0
# Processed by: cddbd v1.5.2PL0 Copyright (c) Steve Scherf et al.
# Submitted via: CDex 1.70beta2
#
DISCID=8d0d2e0b
DTITLE=Engstfeld, Wolfgang - Songs and Ballads
DYEAR=1993
DGENRE=Jazz
TTITLE0=spring can really hang you up the most
TTITLE1=for you
TTITLE2=ode to Sammy Davis jr.
TTITLE3=bad girl
TTITLE4=never ending nights
TTITLE5=blue ballad
TTITLE6=joy in a scene from sadness
TTITLE7=early summer
TTITLE8=ballad
TTITLE9=parting
TTITLE10=spring
EXTD=YEAR: 1993
EXTT0=
EXTT1=
EXTT2=
EXTT3=
EXTT4=
EXTT5=
EXTT6=
EXTT7=
EXTT8=
EXTT9=
EXTT10=
PLAYORDER=
